<?xml version="1.0" encoding="UTF-8" standalone="no"?>
<!-- Created with Inkscape (http://www.inkscape.org/) -->
<svg
   xmlns:dc="http://purl.org/dc/elements/1.1/"
   xmlns:cc="http://web.resource.org/cc/"
   xmlns:rdf="http://www.w3.org/1999/02/22-rdf-syntax-ns#"
   xmlns:svg="http://www.w3.org/2000/svg"
   xmlns="http://www.w3.org/2000/svg"
   xmlns:sodipodi="http://sodipodi.sourceforge.net/DTD/sodipodi-0.dtd"
   xmlns:inkscape="http://www.inkscape.org/namespaces/inkscape"
   width="693.8866"
   height="353.75375"
   id="svg2"
   sodipodi:version="0.32"
   inkscape:version="0.44"
   sodipodi:docbase="C:\Dokumente und Einstellungen\E\Desktop"
   sodipodi:docname="Puma_Logo.svg"
   version="1.0">
  <defs
     id="defs4" />
  <sodipodi:namedview
     id="base"
     pagecolor="#ffffff"
     bordercolor="#666666"
     borderopacity="1.0"
     inkscape:pageopacity="0.0"
     inkscape:pageshadow="2"
     inkscape:zoom="0.98994949"
     inkscape:cx="247.00898"
     inkscape:cy="163.32979"
     inkscape:document-units="px"
     inkscape:current-layer="layer1"
     showguides="true"
     inkscape:guide-bbox="true"
     inkscape:window-width="1152"
     inkscape:window-height="817"
     inkscape:window-x="-4"
     inkscape:window-y="22" />
  <metadata
     id="metadata7">
    <rdf:RDF>
      <cc:Work
         rdf:about="">
        <dc:format>image/svg+xml</dc:format>
        <dc:type
           rdf:resource="http://purl.org/dc/dcmitype/StillImage" />
        <dc:description>Schöpfungshöhe gering</dc:description>
        <dc:title>Puma Logo</dc:title>
        <dc:rights>
          <cc:Agent>
            <dc:title>Puma A</dc:title>
          </cc:Agent>
        </dc:rights>
      </cc:Work>
    </rdf:RDF>
  </metadata>
  <g
     inkscape:label="Ebene 1"
     inkscape:groupmode="layer"
     id="layer1"
     style="opacity:1"
     transform="translate(-27.37219,-415.2404)">
    <path
       sodipodi:nodetypes="cccsssccccccssscccccccscccccssccsscccccscccccsccccccsscccccsccccccsssc"
       id="path1969"
       d="M 27.372192,671.33967 L 27.372192,588.00508 L 73.872092,588.00508 C 100.02326,588.00508 122.98453,589.40327 126.34202,591.20014 C 131.90294,594.17626 132.31205,598.17975 132.31205,649.62254 C 132.31205,716.42841 133.291,714.5502 98.470669,714.5502 C 71.055226,714.5502 70.582719,714.97283 70.582719,739.49437 L 70.582719,754.67426 L 48.977455,754.67426 L 27.372192,754.67426 L 27.372192,671.33967 z M 86.01505,651.60786 C 86.01505,617.89978 85.169299,609.94624 81.432431,608.51227 C 73.569903,605.49513 70.582719,617.14409 70.582719,650.8223 C 70.582719,687.30986 71.865599,692.94494 80.172335,692.94494 C 85.614142,692.94494 86.01505,690.10853 86.01505,651.60786 z M 150.93944,748.70424 C 148.98076,745.04443 147.74438,712.79661 147.74438,665.36965 L 147.74438,588.00508 L 170.89287,588.00508 L 194.04137,588.00508 L 194.04137,655.31743 C 194.04137,706.91291 195.01304,723.95862 198.20284,728.32093 C 207.77451,741.41098 209.4737,730.93178 209.4737,658.81165 L 209.4737,588.00508 L 232.6222,588.00508 L 255.77069,588.00508 L 255.77069,667.63591 C 255.77069,725.45571 254.75623,748.2812 252.06693,750.9705 C 249.50974,753.5277 233.77803,754.67426 201.24884,754.67426 C 157.82713,754.67426 153.88408,754.20636 150.93944,748.70424 z M 271.20302,675.04343 C 271.20302,617.22363 272.21749,594.39814 274.90678,591.70884 C 280.17047,586.44516 425.81828,586.44516 431.08197,591.70884 C 433.77127,594.39814 434.78573,617.22363 434.78573,675.04343 L 434.78573,754.67426 L 411.63724,754.67426 L 388.48874,754.67426 L 388.48874,681.91599 C 388.48874,614.28441 388.10815,609.2309 383.08742,610.19626 C 378.15689,611.14428 377.61388,617.4859 376.85761,682.95453 L 376.02911,754.67426 L 352.9375,754.67426 L 329.84588,754.67426 L 329.84588,684.06346 C 329.84588,629.24088 328.93231,612.69446 325.76004,610.06171 C 316.0153,601.97429 314.41355,612.4547 314.41355,684.30283 L 314.41355,754.67426 L 292.80829,754.67426 L 271.20302,754.67426 L 271.20302,675.04343 z M 453.30453,674.53473 C 453.30453,598.46199 453.6075,594.23307 459.27456,591.20014 C 467.90666,586.58038 549.84972,587.01794 554.54062,591.70884 C 557.22992,594.39814 558.24438,617.22363 558.24438,675.04343 L 558.24438,754.67426 L 535.2369,754.67426 L 512.22943,754.67426 L 511.31679,733.84062 C 510.61348,717.78508 509.34235,713.00697 505.77445,713.00697 C 502.20656,713.00697 500.93543,717.78508 500.23212,733.84062 L 499.31948,754.67426 L 476.31201,754.67426 L 453.30453,754.67426 L 453.30453,674.53473 z M 510.40415,651.02044 C 510.40415,617.64088 509.65078,611.15358 505.77445,611.15358 C 501.96647,611.15358 500.98951,617.6953 500.27008,648.01149 C 499.34269,687.08903 500.35863,694.2358 506.54771,692.17278 C 509.36661,691.23314 510.40415,680.16145 510.40415,651.02044 z "
       style="fill:black" />
    <path
       sodipodi:nodetypes="cssssscccsssssscccssssssssssssscccssssssc"
       id="path1989"
       d="M 652.28822,682.33159 C 650.3363,679.97966 646.92247,671.79772 646.24522,663.22353 C 645.05551,648.16119 648.15612,649.25842 629.70032,630.7263 C 614.81772,615.78213 605.1365,605.96507 598.44565,586.27954 C 587.90907,555.27928 574.12134,547.15349 557.23778,547.15349 C 541.60227,547.15349 516.70775,542.13904 503.39116,536.30728 C 497.07982,533.54334 484.83143,524.89493 476.17255,517.08858 L 460.42911,502.89523 L 453.19726,508.58381 C 443.5961,516.13608 430.07757,515.75867 409.71322,507.3698 C 390.75712,499.56104 387.18005,500.04088 387.18005,505.5305 C 387.18005,512.00163 382.15445,512.29493 374.98168,507.59516 C 359.88753,497.70509 372.6345,481.60598 398.00488,482.86868 C 413.11063,483.61308 413.82335,483.74501 413.82335,477.57429 C 413.82335,470.27765 409.32159,467.69081 396.62361,467.69081 C 391.173,467.69081 386.42157,465.87993 381.67817,461.33546 C 378.7681,459.58253 376.16939,458.21707 374.5064,454.22251 C 375.89161,449.15188 377.31437,445.92414 380.01572,443.48578 C 382.6426,438.36318 385.75999,432.83493 391.30062,429.3368 C 394.49011,427.32307 397.59767,421.05139 400.02767,418.57795 C 402.1773,416.38989 402.08666,415.70484 405.78744,418.75972 C 409.59152,421.89989 411.07022,421.91695 414.74982,418.86316 C 418.45927,415.78459 419.65434,415.88684 422.30322,419.50939 C 424.03393,421.87628 430.29624,428.28303 438.9242,430.3113 C 462.96982,435.96397 484.22708,448.66216 522.94974,480.60463 C 572.28257,521.29942 577.19783,519.54556 600.62318,521.89638 C 628.11565,524.65535 638.45639,514.43591 658.17677,470.94271 C 671.12449,442.38655 679.51191,431.43565 695.16257,421.55583 C 708.45662,413.16364 720.05943,412.85038 720.98324,422.3341 C 721.86929,431.42951 721.76964,435.77717 702.17668,447.60178 C 680.38704,460.75212 673.93034,467.45879 660.2257,495.84357 C 653.16857,510.46014 644.60036,523.51545 638.37114,529.14319 L 628.12473,538.40019 L 634.93251,552.15623 C 639.97191,562.33899 642.07539,571.83911 643.03034,588.72896 C 644.80263,620.07548 642.69642,617.13375 653.28102,627.17823 C 658.20296,631.84902 660.13437,628.11248 662.13569,637.51995 C 664.03482,646.44702 664.52766,650.89364 668.6707,662.12082 C 671.26261,669.14461 668.88818,665.09029 667.9076,675.01557 C 667.16144,682.56806 668.93604,679.74428 665.63596,687.61798 C 664.19702,691.05118 654.24016,684.68352 652.28822,682.33159 z "
       style="fill:black" />
    <text
       xml:space="preserve"
       style="font-size:40px;font-style:normal;font-weight:normal;text-align:center;text-anchor:middle;fill:black;fill-opacity:1;stroke:none;stroke-width:1px;stroke-linecap:butt;stroke-linejoin:miter;stroke-opacity:1;font-family:Arial Black"
       x="597.77808"
       y="760.17554"
       id="text2015"><tspan
         sodipodi:role="line"
         id="tspan2017"
         x="597.77808"
         y="760.17554"
         style="font-size:32px;font-family:Verdana">R</tspan></text>
    <path
       sodipodi:type="arc"
       style="opacity:1;fill:none;fill-opacity:1;fill-rule:nonzero;stroke:black;stroke-width:4;stroke-miterlimit:4;stroke-dasharray:none;stroke-opacity:1"
       id="path2029"
       sodipodi:cx="598.26282"
       sodipodi:cy="749.56897"
       sodipodi:rx="18.940361"
       sodipodi:ry="18.940361"
       d="M 617.20318 749.56897 A 18.940361 18.940361 0 1 1  579.32246,749.56897 A 18.940361 18.940361 0 1 1  617.20318 749.56897 z"
       transform="translate(0.50508,-1.515224)" />
  </g>
</svg>
