<?xml version="1.0" standalone="no"?>
<!DOCTYPE svg PUBLIC "-//W3C//DTD SVG 20010904//EN"
 "http://www.w3.org/TR/2001/REC-SVG-20010904/DTD/svg10.dtd">
<svg version="1.0" xmlns="http://www.w3.org/2000/svg"
 width="800.000000pt" height="400.000000pt" viewBox="0 0 800.000000 400.000000"
 preserveAspectRatio="xMidYMid meet">

<g transform="translate(0.000000,400.000000) scale(0.100000,-0.100000)"
fill="#000000" stroke="none">
<path d="M6055 2228 c-303 -527 -346 -606 -338 -628 5 -14 13 -25 18 -25 6 0
107 65 226 145 l216 145 126 220 126 220 15 250 c9 138 16 256 16 263 0 7 -12
12 -29 12 -27 0 -44 -27 -376 -602z"/>
<path d="M6524 2703 c3 -71 9 -188 13 -262 l6 -134 127 -221 127 -221 222
-150 222 -150 19 25 c16 21 17 28 6 45 -7 11 -165 284 -351 608 -327 567 -340
587 -368 587 l-30 0 7 -127z"/>
<path d="M720 1995 l0 -495 100 0 100 0 2 214 3 215 168 -188 c240 -269 202
-242 341 -239 l118 3 -175 195 -175 195 66 8 c155 18 249 111 260 258 13 182
-94 296 -298 319 -47 5 -181 10 -297 10 l-213 0 0 -495z m552 298 c73 -33 100
-112 62 -184 -26 -51 -69 -62 -251 -67 l-163 -4 0 142 0 142 153 -4 c127 -4
160 -8 199 -25z"/>
<path d="M3200 1995 l0 -495 21 0 c12 0 37 10 56 21 l34 21 67 -33 c63 -33 71
-34 177 -34 105 0 114 2 177 33 75 37 110 73 145 150 24 50 24 59 21 235 -3
180 -3 183 -33 235 -35 64 -71 96 -145 131 -47 22 -69 26 -150 26 -77 0 -103
-4 -137 -21 l-43 -21 0 123 0 124 -95 0 -95 0 0 -495z m435 105 c67 -32 75
-56 75 -220 0 -164 -8 -188 -75 -220 -82 -40 -178 -18 -223 50 -22 33 -23 42
-20 182 3 140 4 148 28 173 52 57 141 71 215 35z"/>
<path d="M4810 1996 l0 -495 95 -3 95 -3 2 175 3 174 155 -172 155 -172 117 0
c65 0 118 2 118 5 0 2 -46 55 -102 118 -57 62 -136 150 -177 195 l-73 82 143
163 c78 89 156 177 173 195 l30 32 -121 0 -121 0 -143 -162 c-78 -90 -146
-164 -151 -166 -4 -2 -8 116 -8 262 l0 266 -95 0 -95 0 0 -494z"/>
<path d="M1794 2270 c-79 -26 -153 -90 -185 -162 -22 -49 -24 -65 -24 -223 0
-156 2 -174 23 -220 62 -135 207 -207 387 -192 151 13 247 77 279 188 9 29 16
56 16 61 0 4 -40 8 -88 8 l-88 0 -11 -30 c-15 -40 -69 -62 -150 -62 -109 -1
-166 45 -179 145 l-7 47 263 0 262 0 -4 118 c-4 135 -21 184 -83 247 -63 62
-132 88 -250 92 -80 2 -112 -1 -161 -17z m219 -154 c47 -20 78 -58 84 -105 l6
-41 -168 0 -167 0 6 38 c9 48 34 83 77 104 41 21 117 23 162 4z"/>
<path d="M2615 2277 c-101 -34 -154 -76 -196 -157 -22 -41 -24 -59 -27 -222
-4 -175 -3 -178 24 -238 64 -144 234 -215 430 -181 121 22 196 78 229 172 28
77 26 79 -69 79 -82 0 -85 -1 -98 -27 -20 -42 -68 -64 -140 -65 -122 -2 -188
51 -188 151 l0 41 255 0 255 0 0 113 c0 107 -2 118 -31 175 -57 114 -146 164
-304 169 -65 2 -114 -2 -140 -10z m212 -166 c43 -20 65 -51 78 -108 l7 -33
-166 0 -166 0 0 30 c0 104 132 163 247 111z"/>
<path d="M4230 2277 c-91 -26 -164 -88 -201 -172 -28 -63 -39 -269 -20 -376
27 -151 133 -239 308 -255 167 -16 306 54 365 181 21 46 23 63 23 230 0 204
-9 238 -80 310 -63 62 -132 88 -250 92 -61 2 -118 -2 -145 -10z m227 -183 c52
-38 63 -76 63 -214 0 -151 -12 -183 -80 -217 -90 -46 -196 -16 -232 65 -17 38
-19 62 -16 172 3 144 13 169 79 203 46 24 147 19 186 -9z"/>
<path d="M5995 1640 c-145 -75 -229 -124 -227 -132 10 -38 2 -38 722 -38 l698
0 16 25 16 25 -240 120 -240 120 -257 -1 -258 0 -230 -119z"/>
</g>
</svg>
